<svg width="96" height="96" viewBox="0 0 96 96" fill="none" xmlns="http://www.w3.org/2000/svg">
  <defs>
    <linearGradient id="bg_polar" x1="0" y1="0" x2="96" y2="96">
      <stop stop-color="#E0F7FA"/>
      <stop offset="1" stop-color="#4DD0E1"/>
    </linearGradient>
  </defs>
  <rect width="96" height="96" rx="48" fill="url(#bg_polar)"/>
  <circle cx="48" cy="51" r="23" fill="#FFD8A8"/>
  <path d="M26 43C26 31 36 22 48 22C60 22 70 31 70 43V55C70 55 65 65 48 65C31 65 26 55 26 55V43Z" fill="#37474F"/>
  <path d="M33 43C33 35 40 30 48 30C56 30 63 35 63 43V55C63 55 58 60 48 60C38 60 33 55 33 55V43Z" fill="#FFD8A8"/>
  <rect x="32" y="44" width="32" height="10" rx="5" fill="#263238" fill-opacity="0.9"/>
  <path d="M36 49H60" stroke="#80DEEA" stroke-width="1.5" stroke-linecap="round"/>
  <path d="M43 65C44.5 67 51.5 67 53 65" stroke="#B04A5A" stroke-width="2.5" stroke-linecap="round"/>
</svg>
