<svg width="96" height="96" viewBox="0 0 96 96" fill="none" xmlns="http://www.w3.org/2000/svg">
  <defs>
    <linearGradient id="bg_santa" x1="0" y1="0" x2="96" y2="96">
      <stop stop-color="#ff9a9e"/>
      <stop offset="1" stop-color="#fad0c4"/>
    </linearGradient>
  </defs>
  <rect width="96" height="96" rx="48" fill="url(#bg_santa)"/>
  <circle cx="48" cy="51" r="23" fill="#FFD8A8"/>
  <path d="M26 43C26 31 36 22 48 22C60 22 70 31 70 43V47H26V43Z" fill="#263238"/>
  <path d="M29 55C29 65 37 73 48 73C59 73 67 65 67 55H29Z" fill="#F8F8F8"/>
  <circle cx="48" cy="51" r="23" fill="#FFD8A8"/> <path d="M29 55C29 65 37 73 48 73C59 73 67 65 67 55" stroke="#F8F8F8" stroke-width="1"/>
  <circle cx="40" cy="51" r="2.8" fill="#263238"/>
  <circle cx="56" cy="51" r="2.8" fill="#263238"/>
  <path d="M41 61C43.4 64.5 52.6 64.5 55 61" stroke="#B04A5A" stroke-width="2.8" stroke-linecap="round"/>
</svg>
