<svg width="96" height="96" viewBox="0 0 96 96" fill="none" xmlns="http://www.w3.org/2000/svg">
  <defs>
    <linearGradient id="bg_pod" x1="0" y1="0" x2="96" y2="96">
      <stop stop-color="#a8e6cf"/>
      <stop offset="1" stop-color="#3d8b37"/>
    </linearGradient>
  </defs>
  <rect width="96" height="96" rx="48" fill="url(#bg_pod)"/>
  <circle cx="48" cy="51" r="23" fill="#FFD8A8"/>
  <path d="M26 43C26 31 36 22 48 22C60 22 70 31 70 43V47H26V43Z" fill="#263238"/>
  <path d="M23 48 A25 25 0 0 1 73 48" stroke="#263238" stroke-width="4" fill="none" stroke-linecap="round"/>
  <rect x="23" y="44" width="6" height="12" rx="3" fill="#263238"/>
  <rect x="67" y="44" width="6" height="12" rx="3" fill="#263238"/>
  <circle cx="40" cy="51" r="2.8" fill="#263238"/>
  <circle cx="56" cy="51" r="2.8" fill="#263238"/>
  <path d="M41 61C43.4 64.5 52.6 64.5 55 61" stroke="#B04A5A" stroke-width="2.8" stroke-linecap="round"/>
</svg>
