<svg width="96" height="96" viewBox="0 0 96 96" fill="none" xmlns="http://www.w3.org/2000/svg">
  <defs>
    <linearGradient id="bg_uncle" x1="0" y1="0" x2="96" y2="96">
      <stop stop-color="#434343"/>
      <stop offset="1" stop-color="#000000"/>
    </linearGradient>
  </defs>
  <rect width="96" height="96" rx="48" fill="url(#bg_uncle)"/>
  <circle cx="48" cy="51" r="23" fill="#E0AC69"/>
  <path d="M26 43C26 31 36 22 48 22C60 22 70 31 70 43V47H26V43Z" fill="#32475E"/>
  <path d="M29 55C29 65 37 73 48 73C59 73 67 65 67 55H29Z" fill="#32475E"/>
  <circle cx="48" cy="51" r="23" fill="#E0AC69"/> <path d="M29 55C29 65 37 73 48 73C59 73 67 65 67 55" stroke="#32475E" stroke-width="1"/>
  <circle cx="40" cy="50" r="2.8" fill="#1A2530"/>
  <circle cx="56" cy="50" r="2.8" fill="#1A2530"/>
  <path d="M42 63C44 65.5 52 65.5 54 63" stroke="#B04A5A" stroke-width="2.5" stroke-linecap="round"/>
</svg>
